<svg width="56" height="56" viewBox="0 0 56 56" fill="none" xmlns="http://www.w3.org/2000/svg">
<rect width="56" height="56" rx="16" fill="#F6F8FF"/>
<g clip-path="url(#clip0_52_9)">
<path d="M19.8334 24.5002C20.1428 24.5002 20.4395 24.6231 20.6583 24.8419C20.8771 25.0607 21 25.3574 21 25.6668C22.833 25.6641 24.6132 26.2808 26.0517 27.4168H28.5834C30.1385 27.4168 31.535 28.0935 32.4964 29.1668H36.1667C37.2695 29.1665 38.3498 29.4788 39.2823 30.0675C40.2148 30.6563 40.9614 31.4972 41.4354 32.493C38.6762 36.1342 34.209 38.5002 29.1667 38.5002C25.9117 38.5002 23.1584 37.7967 20.93 36.5658C20.8484 36.7911 20.6993 36.9856 20.503 37.123C20.3068 37.2604 20.0729 37.3339 19.8334 37.3335H16.3334C16.0239 37.3335 15.7272 37.2106 15.5084 36.9918C15.2896 36.773 15.1667 36.4762 15.1667 36.1668V25.6668C15.1667 25.3574 15.2896 25.0607 15.5084 24.8419C15.7272 24.6231 16.0239 24.5002 16.3334 24.5002H19.8334ZM21.0012 28.0002L21 33.8592L21.0525 33.8965C23.1467 35.3665 25.8744 36.1668 29.1667 36.1668C32.6714 36.1668 35.9322 34.8182 38.3075 32.5152L38.4627 32.36L38.3227 32.2433C37.7718 31.8119 37.104 31.5558 36.4059 31.5083L36.1667 31.5002H33.7039C33.7879 31.8758 33.8334 32.2655 33.8334 32.6668V33.8335H23.3334V31.5002L31.255 31.499L31.2154 31.408C30.9918 30.9408 30.6479 30.5415 30.2189 30.2512C29.79 29.9609 29.2915 29.79 28.7747 29.756L28.5834 29.7502H25.165C24.6229 29.1957 23.9753 28.7552 23.2605 28.4547C22.5456 28.1541 21.7778 27.9996 21.0024 28.0002H21.0012ZM18.6667 26.8335H17.5V35.0002H18.6667V26.8335ZM35 19.8335C35.9283 19.8335 36.8185 20.2022 37.4749 20.8586C38.1313 21.515 38.5 22.4052 38.5 23.3335C38.5 24.2618 38.1313 25.152 37.4749 25.8084C36.8185 26.4647 35.9283 26.8335 35 26.8335C34.0718 26.8335 33.1815 26.4647 32.5251 25.8084C31.8688 25.152 31.5 24.2618 31.5 23.3335C31.5 22.4052 31.8688 21.515 32.5251 20.8586C33.1815 20.2022 34.0718 19.8335 35 19.8335ZM35 22.1668C34.6906 22.1668 34.3939 22.2897 34.1751 22.5085C33.9563 22.7273 33.8334 23.0241 33.8334 23.3335C33.8334 23.6429 33.9563 23.9397 34.1751 24.1585C34.3939 24.3772 34.6906 24.5002 35 24.5002C35.3094 24.5002 35.6062 24.3772 35.825 24.1585C36.0438 23.9397 36.1667 23.6429 36.1667 23.3335C36.1667 23.0241 36.0438 22.7273 35.825 22.5085C35.6062 22.2897 35.3094 22.1668 35 22.1668ZM26.8334 16.3335C27.7616 16.3335 28.6519 16.7022 29.3082 17.3586C29.9646 18.015 30.3334 18.9052 30.3334 19.8335C30.3334 20.7618 29.9646 21.652 29.3082 22.3084C28.6519 22.9647 27.7616 23.3335 26.8334 23.3335C25.9051 23.3335 25.0149 22.9647 24.3585 22.3084C23.7021 21.652 23.3334 20.7618 23.3334 19.8335C23.3334 18.9052 23.7021 18.015 24.3585 17.3586C25.0149 16.7022 25.9051 16.3335 26.8334 16.3335V16.3335ZM26.8334 18.6668C26.5239 18.6668 26.2272 18.7897 26.0084 19.0085C25.7896 19.2273 25.6667 19.5241 25.6667 19.8335C25.6667 20.1429 25.7896 20.4397 26.0084 20.6585C26.2272 20.8772 26.5239 21.0002 26.8334 21.0002C27.1428 21.0002 27.4395 20.8772 27.6583 20.6585C27.8771 20.4397 28 20.1429 28 19.8335C28 19.5241 27.8771 19.2273 27.6583 19.0085C27.4395 18.7897 27.1428 18.6668 26.8334 18.6668V18.6668Z" fill="#508FF4"/>
</g>
<defs>
<clipPath id="clip0_52_9">
<rect width="28" height="28" fill="white" transform="translate(14 14)"/>
</clipPath>
</defs>
</svg>
