<svg width="56" height="56" viewBox="0 0 56 56" fill="none" xmlns="http://www.w3.org/2000/svg">
<rect width="56" height="56" rx="16" fill="white"/>
<g clip-path="url(#clip0_0_483)">
<path d="M21.2742 21.5284C19.7867 23.0723 18.8761 25.0811 18.6953 27.2173C18.5146 29.3535 19.0747 31.4867 20.2816 33.2586C21.4885 35.0304 23.2686 36.3327 25.3226 36.9466C27.3767 37.5606 29.5794 37.4487 31.5607 36.6298C31.6948 35.7548 31.4008 34.9148 31.2807 34.6208C31.0123 33.9674 30.128 32.8509 28.6522 31.3028C28.2578 30.8886 28.2835 30.5701 28.4247 29.6263L28.4398 29.5201C28.5355 28.8738 28.6965 28.4911 30.8723 28.1458C31.9783 27.9708 32.2688 28.4118 32.6713 29.0243L32.8067 29.2249C33.1893 29.7849 33.4728 29.9133 33.901 30.1069C34.0935 30.1944 34.3327 30.3053 34.6535 30.4861C35.4142 30.9213 35.4142 31.4124 35.4142 32.4881V32.6106C35.4142 33.0668 35.3698 33.4681 35.2998 33.8169C36.1951 32.6933 36.8189 31.3783 37.1228 29.9741C37.4267 28.57 37.4025 27.1147 37.052 25.7215C36.7014 24.3282 36.0341 23.0347 35.1019 21.9416C34.1696 20.8485 32.9977 19.9852 31.6773 19.4191C31.0322 19.8543 30.1467 20.4714 29.8375 20.8949C29.68 21.1108 29.456 22.2156 28.7292 22.3066C28.5402 22.3299 28.2847 22.3136 28.014 22.2961C27.2883 22.2494 26.2967 22.1853 25.9793 23.0474C25.7775 23.5934 25.7425 25.0774 26.3947 25.8474C26.4997 25.9699 26.5195 26.1974 26.4483 26.4529C26.355 26.7878 26.1672 26.9919 26.1077 27.0339C25.9957 26.9686 25.7717 26.7084 25.6188 26.5323C25.2537 26.1064 24.7963 25.5756 24.206 25.4123C23.9913 25.3528 23.7557 25.3038 23.5258 25.2548C22.8853 25.1206 22.1608 24.9678 21.9917 24.6084C21.868 24.3448 21.8692 23.9819 21.8692 23.5993C21.8692 23.1128 21.8692 22.5633 21.6312 22.0301C21.5484 21.8398 21.4268 21.6689 21.2742 21.5284ZM28 39.6666C21.5565 39.6666 16.3333 34.4434 16.3333 27.9999C16.3333 21.5564 21.5565 16.3333 28 16.3333C34.4435 16.3333 39.6667 21.5564 39.6667 27.9999C39.6667 34.4434 34.4435 39.6666 28 39.6666Z" fill="#508FF4"/>
</g>
<defs>
<clipPath id="clip0_0_483">
<rect width="28" height="28" fill="white" transform="translate(14 14)"/>
</clipPath>
</defs>
</svg>
