<svg width="56" height="56" viewBox="0 0 56 56" fill="none" xmlns="http://www.w3.org/2000/svg">
<rect width="56" height="56" rx="16" fill="white"/>
<g clip-path="url(#clip0_0_469)">
<path d="M17.9135 17.1303L27.5 15L37.0865 17.1303C37.3456 17.1879 37.5773 17.3321 37.7433 17.5391C37.9094 17.7462 38 18.0036 38 18.269V29.9205C37.9999 31.0729 37.7153 32.2074 37.1715 33.2233C36.6277 34.2393 35.8415 35.1053 34.8827 35.7445L27.5 40.6667L20.1173 35.7445C19.1587 35.1054 18.3725 34.2396 17.8287 33.2239C17.2849 32.2081 17.0003 31.0738 17 29.9217V18.269C17 18.0036 17.0906 17.7462 17.2567 17.5391C17.4227 17.3321 17.6544 17.1879 17.9135 17.1303ZM19.3333 19.2047V29.9205C19.3333 30.6887 19.523 31.445 19.8855 32.1223C20.2479 32.7996 20.772 33.377 21.4112 33.8032L27.5 37.8632L33.5888 33.8032C34.2278 33.3771 34.7518 32.7999 35.1143 32.1229C35.4767 31.4458 35.6665 30.6897 35.6667 29.9217V19.2047L27.5 17.3917L19.3333 19.2047ZM27.5 26.6667C26.7265 26.6667 25.9846 26.3594 25.4376 25.8124C24.8906 25.2654 24.5833 24.5235 24.5833 23.75C24.5833 22.9765 24.8906 22.2346 25.4376 21.6876C25.9846 21.1406 26.7265 20.8333 27.5 20.8333C28.2735 20.8333 29.0154 21.1406 29.5624 21.6876C30.1094 22.2346 30.4167 22.9765 30.4167 23.75C30.4167 24.5235 30.1094 25.2654 29.5624 25.8124C29.0154 26.3594 28.2735 26.6667 27.5 26.6667ZM22.2815 32.5C22.4229 31.2148 23.0336 30.027 23.9966 29.1642C24.9596 28.3014 26.207 27.8242 27.5 27.8242C28.793 27.8242 30.0404 28.3014 31.0034 29.1642C31.9664 30.027 32.5771 31.2148 32.7185 32.5H22.2815Z" fill="#508FF4"/>
</g>
<defs>
<clipPath id="clip0_0_469">
<rect width="28" height="28" fill="white" transform="translate(14 14)"/>
</clipPath>
</defs>
</svg>
