<svg width="56" height="56" viewBox="0 0 56 56" fill="none" xmlns="http://www.w3.org/2000/svg">
<rect width="56" height="56" rx="16" fill="#F6F8FF"/>
<g clip-path="url(#clip0_52_163)">
<path d="M18.6666 19.8333V36.1667H37.3333V19.8333H18.6666ZM17.5 17.5H38.5C38.8094 17.5 39.1061 17.6229 39.3249 17.8417C39.5437 18.0605 39.6666 18.3572 39.6666 18.6667V37.3333C39.6666 37.6428 39.5437 37.9395 39.3249 38.1583C39.1061 38.3771 38.8094 38.5 38.5 38.5H17.5C17.1906 38.5 16.8938 38.3771 16.675 38.1583C16.4562 37.9395 16.3333 37.6428 16.3333 37.3333V18.6667C16.3333 18.3572 16.4562 18.0605 16.675 17.8417C16.8938 17.6229 17.1906 17.5 17.5 17.5ZM28 24.5V21L33.8333 26.8333H23.3333V24.5H28ZM22.1666 29.1667H32.6666V31.5H28V35L22.1666 29.1667Z" fill="#508FF4"/>
</g>
<defs>
<clipPath id="clip0_52_163">
<rect width="28" height="28" fill="white" transform="translate(14 14)"/>
</clipPath>
</defs>
</svg>
