<svg width="56" height="56" viewBox="0 0 56 56" fill="none" xmlns="http://www.w3.org/2000/svg">
<rect width="56" height="56" rx="16" fill="#F6F8FF"/>
<g clip-path="url(#clip0_52_17)">
<path d="M35 22.1667H38.5C38.8094 22.1667 39.1062 22.2896 39.325 22.5084C39.5438 22.7272 39.6667 23.0239 39.6667 23.3333V37.3333C39.6667 37.6428 39.5438 37.9395 39.325 38.1583C39.1062 38.3771 38.8094 38.5 38.5 38.5H17.5C17.1906 38.5 16.8938 38.3771 16.6751 38.1583C16.4563 37.9395 16.3333 37.6428 16.3333 37.3333V18.6667C16.3333 18.3572 16.4563 18.0605 16.6751 17.8417C16.8938 17.6229 17.1906 17.5 17.5 17.5H35V22.1667ZM18.6667 24.5V36.1667H37.3333V24.5H18.6667ZM18.6667 19.8333V22.1667H32.6667V19.8333H18.6667ZM31.5 29.1667H35V31.5H31.5V29.1667Z" fill="#508FF4"/>
</g>
<defs>
<clipPath id="clip0_52_17">
<rect width="28" height="28" fill="white" transform="translate(14 14)"/>
</clipPath>
</defs>
</svg>
