<svg width="56" height="56" viewBox="0 0 56 56" fill="none" xmlns="http://www.w3.org/2000/svg">
<rect width="56" height="56" rx="16" fill="#F6F8FF"/>
<g clip-path="url(#clip0_52_258)">
<path d="M28 39.6668C21.5565 39.6668 16.3333 34.4437 16.3333 28.0002C16.3333 21.5567 21.5565 16.3335 28 16.3335C34.4435 16.3335 39.6667 21.5567 39.6667 28.0002C39.6667 34.4437 34.4435 39.6668 28 39.6668ZM28 37.3335C30.4754 37.3335 32.8493 36.3502 34.5997 34.5998C36.35 32.8495 37.3333 30.4755 37.3333 28.0002C37.3333 25.5248 36.35 23.1508 34.5997 21.4005C32.8493 19.6502 30.4754 18.6668 28 18.6668C25.5247 18.6668 23.1507 19.6502 21.4003 21.4005C19.65 23.1508 18.6667 25.5248 18.6667 28.0002C18.6667 30.4755 19.65 32.8495 21.4003 34.5998C23.1507 36.3502 25.5247 37.3335 28 37.3335ZM26.8333 32.6668H23.3333V23.3335H26.8333V21.0002H29.1667V23.3335H30.3333C30.875 23.3335 31.406 23.4843 31.8667 23.7691C32.3275 24.0539 32.6999 24.4613 32.9421 24.9458C33.1843 25.4303 33.2869 25.9726 33.2382 26.5121C33.1896 27.0516 32.9917 27.5668 32.6667 28.0002C32.9917 28.4335 33.1896 28.9488 33.2382 29.4882C33.2869 30.0277 33.1843 30.5701 32.9421 31.0545C32.6999 31.539 32.3275 31.9465 31.8667 32.2312C31.406 32.516 30.875 32.6668 30.3333 32.6668H29.1667V35.0002H26.8333V32.6668ZM25.6667 29.1668V30.3335H30.3333C30.4881 30.3335 30.6364 30.272 30.7458 30.1626C30.8552 30.0532 30.9167 29.9049 30.9167 29.7502C30.9167 29.5955 30.8552 29.4471 30.7458 29.3377C30.6364 29.2283 30.4881 29.1668 30.3333 29.1668H25.6667ZM25.6667 25.6668V26.8335H30.3333C30.4881 26.8335 30.6364 26.772 30.7458 26.6626C30.8552 26.5532 30.9167 26.4049 30.9167 26.2502C30.9167 26.0955 30.8552 25.9471 30.7458 25.8377C30.6364 25.7283 30.4881 25.6668 30.3333 25.6668H25.6667Z" fill="#508FF4"/>
</g>
<defs>
<clipPath id="clip0_52_258">
<rect width="28" height="28" fill="white" transform="translate(14 14)"/>
</clipPath>
</defs>
</svg>
