<svg width="72" height="72" viewBox="0 0 72 72" fill="none" xmlns="http://www.w3.org/2000/svg">
<rect width="72" height="72" rx="36" fill="#FA9D96"/>
<g clip-path="url(#clip0_0_930)">
<path d="M26.6667 27.8333V44.1667H45.3333V27.8333H26.6667ZM25.5 25.5H46.5C46.8094 25.5 47.1062 25.6229 47.325 25.8417C47.5438 26.0605 47.6667 26.3572 47.6667 26.6667V45.3333C47.6667 45.6428 47.5438 45.9395 47.325 46.1583C47.1062 46.3771 46.8094 46.5 46.5 46.5H25.5C25.1906 46.5 24.8938 46.3771 24.675 46.1583C24.4562 45.9395 24.3333 45.6428 24.3333 45.3333V26.6667C24.3333 26.3572 24.4562 26.0605 24.675 25.8417C24.8938 25.6229 25.1906 25.5 25.5 25.5ZM39.2585 33.4252L37.1667 31.3333H43V37.1667L40.9082 35.0748L36.4002 39.5828L33.9257 37.1083L30.6252 40.4077L28.9755 38.758L33.9257 33.8078L36.4002 36.2835L39.2585 33.4252Z" fill="white"/>
</g>
<defs>
<clipPath id="clip0_0_930">
<rect width="28" height="28" fill="white" transform="translate(22 22)"/>
</clipPath>
</defs>
</svg>
