<svg width="72" height="72" viewBox="0 0 72 72" fill="none" xmlns="http://www.w3.org/2000/svg">
<rect width="72" height="72" rx="36" fill="#62F5D1"/>
<g clip-path="url(#clip0_0_924)">
<path d="M23.1667 47.6665C23.1667 45.1912 24.15 42.8172 25.9003 41.0669C27.6507 39.3165 30.0246 38.3332 32.5 38.3332C34.9753 38.3332 37.3493 39.3165 39.0997 41.0669C40.85 42.8172 41.8333 45.1912 41.8333 47.6665H39.5C39.5 45.81 38.7625 44.0296 37.4497 42.7168C36.137 41.404 34.3565 40.6665 32.5 40.6665C30.6435 40.6665 28.863 41.404 27.5502 42.7168C26.2375 44.0296 25.5 45.81 25.5 47.6665H23.1667ZM32.5 37.1665C28.6325 37.1665 25.5 34.0341 25.5 30.1666C25.5 26.2991 28.6325 23.1666 32.5 23.1666C36.3675 23.1666 39.5 26.2991 39.5 30.1666C39.5 34.0341 36.3675 37.1665 32.5 37.1665ZM32.5 34.8332C35.0783 34.8332 37.1667 32.7449 37.1667 30.1666C37.1667 27.5882 35.0783 25.4999 32.5 25.4999C29.9217 25.4999 27.8333 27.5882 27.8333 30.1666C27.8333 32.7449 29.9217 34.8332 32.5 34.8332ZM47.1393 22.9146C48.2572 25.1683 48.8371 27.6507 48.8333 30.1666C48.8333 32.7717 48.2232 35.2345 47.1393 37.4185L45.2202 36.0232C46.0662 34.1868 46.5029 32.1885 46.5 30.1666C46.5 28.0759 46.0415 26.0914 45.2202 24.3099L47.1393 22.9146ZM43.287 25.7146C43.8697 27.1264 44.1686 28.6392 44.1667 30.1666C44.1686 31.6939 43.8697 33.2067 43.287 34.6186L41.3305 33.1952C41.6643 32.2204 41.8343 31.197 41.8333 30.1666C41.8346 29.1362 41.6651 28.1128 41.3317 27.1379L43.287 25.7146Z" fill="white"/>
</g>
<defs>
<clipPath id="clip0_0_924">
<rect width="28" height="28" fill="white" transform="translate(22 22)"/>
</clipPath>
</defs>
</svg>
