<svg width="64" height="64" viewBox="0 0 64 64" fill="none" xmlns="http://www.w3.org/2000/svg">
<rect width="64" height="64" rx="32" fill="#5865F2"/>
<path d="M46.0465 19.7261C43.4631 18.5986 40.6927 17.7678 37.7961 17.292C37.7433 17.2829 37.6907 17.3058 37.6635 17.3517C37.3072 17.9545 36.9125 18.7408 36.6362 19.3589C33.5207 18.9153 30.4212 18.9153 27.3696 19.3589C27.0932 18.7271 26.6842 17.9545 26.3263 17.3517C26.2991 17.3073 26.2464 17.2844 26.1937 17.292C23.2987 17.7663 20.5283 18.597 17.9433 19.7261C17.9209 19.7353 17.9017 19.7506 17.889 19.7705C12.6342 27.2379 11.1947 34.5218 11.9008 41.7154C11.904 41.7505 11.9248 41.7842 11.9536 41.8056C15.4205 44.2274 18.7789 45.6977 22.0749 46.6722C22.1276 46.6875 22.1835 46.6692 22.2171 46.6278C22.9968 45.6151 23.6918 44.5472 24.2877 43.4242C24.3228 43.3585 24.2893 43.2804 24.2174 43.2544C23.115 42.8566 22.0653 42.3717 21.0555 41.8209C20.9757 41.7766 20.9693 41.6679 21.0428 41.6159C21.2552 41.4644 21.4678 41.3068 21.6707 41.1477C21.7074 41.1187 21.7585 41.1125 21.8017 41.1309C28.4352 44.0117 35.6168 44.0117 42.1721 41.1309C42.2153 41.111 42.2664 41.1172 42.3047 41.1462C42.5077 41.3053 42.7202 41.4644 42.9342 41.6159C43.0077 41.6679 43.0029 41.7766 42.9231 41.8209C41.9133 42.3824 40.8636 42.8566 39.7596 43.2529C39.6877 43.2789 39.6558 43.3585 39.6909 43.4242C40.2996 44.5456 40.9946 45.6135 41.7599 46.6263C41.7919 46.6692 41.8494 46.6875 41.9021 46.6722C45.2141 45.6977 48.5724 44.2274 52.0394 41.8056C52.0698 41.7842 52.089 41.7521 52.0921 41.7169C52.9373 33.4003 50.6766 26.1762 46.0992 19.772C46.088 19.7506 46.0689 19.7353 46.0465 19.7261ZM25.2783 37.3352C23.2811 37.3352 21.6355 35.5912 21.6355 33.4493C21.6355 31.3074 23.2492 29.5634 25.2783 29.5634C27.3233 29.5634 28.9529 31.3227 28.921 33.4493C28.921 35.5912 27.3073 37.3352 25.2783 37.3352ZM38.7467 37.3352C36.7496 37.3352 35.104 35.5912 35.104 33.4493C35.104 31.3074 36.7176 29.5634 38.7467 29.5634C40.7917 29.5634 42.4214 31.3227 42.3894 33.4493C42.3894 35.5912 40.7917 37.3352 38.7467 37.3352Z" fill="white"/>
</svg>
