<svg width="20" height="20" viewBox="0 0 20 20" fill="none" xmlns="http://www.w3.org/2000/svg">
<path d="M19.1663 4.26344C18.4846 4.5625 17.7581 4.76073 17.0007 4.85698C17.7799 4.39177 18.3746 3.66073 18.6542 2.77958C17.9277 3.21271 17.1256 3.51865 16.2708 3.68938C15.581 2.9549 14.5979 2.5 13.5254 2.5C11.4446 2.5 9.76936 4.18896 9.76936 6.25948C9.76936 6.5574 9.79457 6.84385 9.85645 7.11656C6.73176 6.96417 3.96686 5.46656 2.10947 3.18521C1.7852 3.74781 1.59499 4.39177 1.59499 5.085C1.59499 6.38667 2.2653 7.54052 3.26447 8.20854C2.66061 8.19708 2.06822 8.02177 1.56634 7.74562C1.56634 7.75708 1.56634 7.77198 1.56634 7.78687C1.56634 9.61333 2.86915 11.1304 4.57759 11.4799C4.27165 11.5635 3.93822 11.6036 3.59217 11.6036C3.35155 11.6036 3.10863 11.5899 2.88061 11.5395C3.36759 13.0279 4.74947 14.1222 6.39259 14.1577C5.11384 15.158 3.4902 15.7607 1.73249 15.7607C1.42426 15.7607 1.12863 15.747 0.833008 15.7092C2.4979 16.7828 4.47103 17.3958 6.59884 17.3958C13.5151 17.3958 17.2963 11.6667 17.2963 6.70062C17.2963 6.53448 17.2906 6.37406 17.2826 6.21479C18.0285 5.68542 18.6553 5.02427 19.1663 4.26344Z" fill="#03A9F4"/>
</svg>
