<svg width="20" height="20" viewBox="0 0 20 20" fill="none" xmlns="http://www.w3.org/2000/svg">
<path d="M16.3529 4.49187C15.1844 3.95571 13.9314 3.56069 12.6213 3.33445C12.5974 3.33008 12.5736 3.34099 12.5613 3.36282C12.4001 3.64944 12.2216 4.02336 12.0966 4.31726C10.6875 4.1063 9.28558 4.1063 7.90534 4.31726C7.78031 4.01683 7.59532 3.64944 7.43345 3.36282C7.42116 3.34172 7.39732 3.33081 7.37346 3.33445C6.06405 3.55997 4.81101 3.95498 3.64178 4.49187C3.63166 4.49623 3.62298 4.50351 3.61722 4.51296C1.24046 8.06379 0.589365 11.5273 0.90877 14.948C0.910216 14.9647 0.91961 14.9807 0.932617 14.9909C2.50074 16.1425 4.01973 16.8416 5.51051 17.305C5.53437 17.3123 5.55965 17.3035 5.57483 17.2839C5.92748 16.8023 6.24183 16.2945 6.51136 15.7605C6.52726 15.7293 6.51208 15.6922 6.47957 15.6798C5.98096 15.4907 5.50617 15.26 5.04947 14.9982C5.01334 14.9771 5.01045 14.9254 5.04368 14.9007C5.13979 14.8286 5.23593 14.7537 5.3277 14.678C5.3443 14.6642 5.36743 14.6613 5.38696 14.67C8.38732 16.0399 11.6356 16.0399 14.6005 14.67C14.6201 14.6606 14.6432 14.6635 14.6605 14.6773C14.7523 14.753 14.8484 14.8286 14.9453 14.9007C14.9785 14.9254 14.9763 14.9771 14.9402 14.9982C14.4835 15.2651 14.0087 15.4907 13.5094 15.6791C13.4769 15.6914 13.4624 15.7293 13.4783 15.7605C13.7536 16.2938 14.068 16.8016 14.4141 17.2832C14.4286 17.3035 14.4546 17.3123 14.4784 17.305C15.9764 16.8416 17.4954 16.1425 19.0635 14.9909C19.0773 14.9807 19.086 14.9654 19.0874 14.9487C19.4697 10.9941 18.4471 7.55893 16.3768 4.51369C16.3717 4.50351 16.3631 4.49623 16.3529 4.49187ZM6.95941 12.8652C6.0561 12.8652 5.31179 12.0359 5.31179 11.0174C5.31179 9.99889 6.04166 9.16958 6.95941 9.16958C7.88437 9.16958 8.62147 10.0062 8.60701 11.0174C8.60701 12.0359 7.87714 12.8652 6.95941 12.8652ZM13.0512 12.8652C12.1479 12.8652 11.4036 12.0359 11.4036 11.0174C11.4036 9.99889 12.1335 9.16958 13.0512 9.16958C13.9762 9.16958 14.7133 10.0062 14.6988 11.0174C14.6988 12.0359 13.9762 12.8652 13.0512 12.8652Z" fill="#5865F2"/>
</svg>
