<svg width="38" height="38" viewBox="0 0 38 38" fill="none" xmlns="http://www.w3.org/2000/svg">
<g clip-path="url(#clip0_0_358)">
<path d="M4.20187 11.726L18.9854 3.19082L33.7686 11.726L33.7686 28.7964L18.9854 37.3315L4.20187 28.7964L4.20187 11.726Z" fill="white"/>
<path d="M16.6113 3.19091C16.6113 1.87932 17.6747 0.815902 18.9863 0.815903C20.2979 0.815903 21.3613 1.87932 21.3613 3.19091C21.3613 4.5025 20.2979 5.56592 18.9863 5.56592C17.6747 5.56592 16.6113 4.5025 16.6113 3.19091Z" fill="#F5737F"/>
<path d="M1.82811 28.7954C1.82811 27.4838 2.89153 26.4207 4.20312 26.4207C5.51471 26.4207 6.57813 27.4838 6.57813 28.7954C6.57813 30.1073 5.51471 31.1704 4.20312 31.1704C2.89153 31.1704 1.82811 30.1073 1.82811 28.7954Z" fill="#FFCB7C"/>
<path d="M31.3945 28.7954C31.3945 27.4838 32.4579 26.4207 33.7695 26.4207C35.0811 26.4207 36.1445 27.4838 36.1445 28.7954C36.1445 30.1073 35.0811 31.1704 33.7695 31.1704C32.4579 31.1704 31.3945 30.1073 31.3945 28.7954Z" fill="#CFF1FB"/>
<path d="M18.9857 31.5742L28.7823 25.9182L28.7823 14.6059L18.9857 8.94961L9.18877 14.6059L9.18877 25.9182L18.9857 31.5742Z" fill="#E2F1A1"/>
<path d="M9.18851 14.6057L9.18851 25.918L18.9854 20.2617L18.9854 8.94937L9.18851 14.6057Z" fill="#CBE558"/>
<path d="M28.7823 14.6057L28.7823 25.918L18.9857 20.2617L18.9857 8.94937L28.7823 14.6057Z" fill="#D8EC84"/>
<path d="M1.08466 28.7942C1.08466 30.5131 2.48294 31.9114 4.20186 31.9114C5.08437 31.9114 5.88193 31.542 6.44959 30.9506L18.6143 37.9739C18.8439 38.1064 19.1265 38.1064 19.3562 37.9739L31.5211 30.9506C32.0888 31.542 32.886 31.9114 33.7685 31.9114C35.4875 31.9114 36.8857 30.5131 36.8857 28.7942C36.8857 27.3313 35.8725 26.1012 34.5107 25.7672L34.5107 11.7256C34.5107 11.4606 34.3693 11.2156 34.1396 11.0828L21.9788 4.0616C22.0593 3.78502 22.1034 3.49279 22.1034 3.1904C22.1034 1.47177 20.7051 0.0732026 18.9862 0.0732025C17.2676 0.0732023 15.8693 1.47177 15.8693 3.1904C15.8693 3.49249 15.9131 3.78415 15.9937 4.06073L3.83077 11.0828C3.60115 11.2153 3.45967 11.4606 3.45967 11.7256L3.45967 25.7672C2.09792 26.1012 1.08466 27.3313 1.08466 28.7942ZM35.4014 28.7942C35.4014 29.6947 34.669 30.427 33.7685 30.427C32.8684 30.427 32.136 29.6947 32.136 28.7942C32.136 27.894 32.8684 27.1614 33.7685 27.1614C34.669 27.1614 35.4014 27.894 35.4014 28.7942ZM18.9862 1.55758C19.8867 1.55758 20.619 2.28992 20.619 3.1904C20.619 4.09059 19.8867 4.82322 18.9862 4.82322C18.086 4.82322 17.3534 4.09059 17.3534 3.1904C17.3534 2.28992 18.086 1.55758 18.9862 1.55758ZM16.737 5.34536C17.305 5.93766 18.1028 6.3076 18.9862 6.3076C19.869 6.3076 20.6669 5.93795 21.2345 5.34623L33.0264 12.1541L33.0264 25.7672C31.6649 26.1012 30.6516 27.3313 30.6516 28.7942C30.6516 29.0969 30.6957 29.3894 30.7766 29.6666L18.9853 36.4741L7.19381 29.6666C7.2747 29.3894 7.31876 29.0972 7.31876 28.7942C7.31876 27.3313 6.3055 26.1012 4.94405 25.7672L4.94405 12.1541L16.737 5.34536ZM4.20186 27.1614C5.10205 27.1614 5.83468 27.894 5.83468 28.7942C5.83468 29.6947 5.10205 30.427 4.20186 30.427C3.30137 30.427 2.56904 29.6947 2.56904 28.7942C2.56904 27.894 3.30137 27.1614 4.20186 27.1614Z" fill="#1F1F1F"/>
<path d="M8.81762 26.561L18.6145 32.217C18.8441 32.3495 19.1268 32.3495 19.3564 32.217L29.1533 26.561C29.3829 26.4282 29.5244 26.1833 29.5244 25.9183L29.5244 14.606C29.5244 14.341 29.3829 14.0957 29.1533 13.9632L19.3564 8.30693C19.2416 8.24083 19.1138 8.20749 18.9856 8.20749C18.8572 8.20749 18.7293 8.24083 18.6145 8.30693L8.81762 13.9632C8.588 14.0957 8.44652 14.341 8.44652 14.606L8.44652 25.9183C8.44652 26.1833 8.588 26.4282 8.81762 26.561ZM18.9856 30.7173L10.6731 25.9183L18.9856 21.119L27.2978 25.9183L18.9856 30.7173ZM18.2434 10.2352L18.2434 13.5823C18.2434 13.9922 18.5757 14.3245 18.9856 14.3245C19.3953 14.3245 19.7275 13.9922 19.7275 13.5823L19.7275 10.2352L28.04 15.0345L28.04 24.6328L19.3564 19.6192C19.2416 19.5531 19.1138 19.5198 18.9856 19.5198C18.8572 19.5198 18.7293 19.5531 18.6145 19.6192L9.9309 24.6328L9.9309 15.0345L18.2434 10.2352Z" fill="#1F1F1F"/>
<path d="M18.9864 17.6641C19.1824 17.6641 19.3732 17.5849 19.5121 17.4466C19.6501 17.3086 19.7295 17.1173 19.7295 16.9219C19.7295 16.7268 19.6501 16.5354 19.5121 16.3974C19.3732 16.2591 19.1824 16.1797 18.9864 16.1797C18.7913 16.1797 18.5997 16.2591 18.4617 16.3974C18.3237 16.5354 18.2442 16.7268 18.2442 16.9219C18.2442 17.1173 18.3237 17.3086 18.4617 17.4466C18.5997 17.5849 18.7913 17.6641 18.9864 17.6641Z" fill="#1F1F1F"/>
</g>
<defs>
<clipPath id="clip0_0_358">
<rect width="38" height="38" fill="white" transform="translate(38 38) rotate(-180)"/>
</clipPath>
</defs>
</svg>
