<svg width="64" height="64" viewBox="0 0 64 64" fill="none" xmlns="http://www.w3.org/2000/svg">
<rect width="64" height="64" rx="16" fill="#F6F8FF"/>
<g clip-path="url(#clip0_0_379)">
<path d="M20.333 41.3335H43.6663V43.6668H20.333V41.3335ZM22.6663 32.0002H24.9997V40.1668H22.6663V32.0002ZM28.4997 32.0002H30.833V40.1668H28.4997V32.0002ZM33.1663 32.0002H35.4997V40.1668H33.1663V32.0002ZM38.9997 32.0002H41.333V40.1668H38.9997V32.0002ZM20.333 26.1668L31.9997 20.3335L43.6663 26.1668V30.8335H20.333V26.1668ZM31.9997 27.3335C32.3091 27.3335 32.6058 27.2106 32.8246 26.9918C33.0434 26.773 33.1663 26.4762 33.1663 26.1668C33.1663 25.8574 33.0434 25.5607 32.8246 25.3419C32.6058 25.1231 32.3091 25.0002 31.9997 25.0002C31.6903 25.0002 31.3935 25.1231 31.1747 25.3419C30.9559 25.5607 30.833 25.8574 30.833 26.1668C30.833 26.4762 30.9559 26.773 31.1747 26.9918C31.3935 27.2106 31.6903 27.3335 31.9997 27.3335Z" fill="#508FF4"/>
</g>
<defs>
<clipPath id="clip0_0_379">
<rect width="28" height="28" fill="white" transform="translate(18 18)"/>
</clipPath>
</defs>
</svg>
