<svg width="64" height="64" viewBox="0 0 64 64" fill="none" xmlns="http://www.w3.org/2000/svg">
<rect width="64" height="64" rx="16" fill="#F6F8FF"/>
<g clip-path="url(#clip0_0_397)">
<path d="M40.6044 35.6201C41.3614 33.8214 41.5356 31.8308 41.1026 29.9279C40.6696 28.0251 39.6512 26.3059 38.1905 25.0119C36.7297 23.7179 34.9002 22.9142 32.959 22.7139C31.0179 22.5136 29.0628 22.9267 27.3685 23.8951L26.2112 21.8686C27.9818 20.8566 29.9868 20.3267 32.0261 20.3316C34.0655 20.3365 36.0679 20.8761 37.8335 21.8966C43.0719 24.9206 45.0785 31.3956 42.6367 36.7949L44.2024 37.6979L39.3432 40.2809L39.1507 34.7812L40.6044 35.6201ZM23.396 28.3797C22.639 30.1784 22.4648 32.1691 22.8978 34.0719C23.3308 35.9747 24.3492 37.6939 25.81 38.9879C27.2707 40.2819 29.1003 41.0856 31.0414 41.2859C32.9825 41.4862 34.9377 41.0732 36.6319 40.1047L37.7892 42.1312C36.0186 43.1432 34.0137 43.6731 31.9743 43.6682C29.935 43.6633 27.9325 43.1237 26.1669 42.1032C20.9285 39.0792 18.9219 32.6042 21.3637 27.2049L19.7969 26.3031L24.656 23.7201L24.8485 29.2197L23.3949 28.3809L23.396 28.3797ZM33.651 35.2992L30.3482 31.9999L27.0489 35.2992L25.3992 33.6496L30.3494 28.7006L33.6499 31.9999L36.9504 28.7006L38.6 30.3502L33.6499 35.2992H33.651Z" fill="#508FF4"/>
</g>
<defs>
<clipPath id="clip0_0_397">
<rect width="28" height="28" fill="white" transform="translate(18 18)"/>
</clipPath>
</defs>
</svg>
