<svg width="72" height="72" viewBox="0 0 72 72" fill="none" xmlns="http://www.w3.org/2000/svg">
<rect width="72" height="72" rx="36" fill="#80AEF7"/>
<g clip-path="url(#clip0_0_921)">
<path d="M37.1667 31.3334V40.6667C37.1667 41.595 36.7979 42.4852 36.1415 43.1416C35.4852 43.798 34.5949 44.1667 33.6667 44.1667H31.135C30.8598 44.9455 30.3181 45.6018 29.6057 46.0198C28.8933 46.4378 28.0561 46.5904 27.2421 46.4508C26.428 46.3112 25.6895 45.8883 25.1571 45.2568C24.6248 44.6253 24.3328 43.826 24.3328 43C24.3328 42.1741 24.6248 41.3747 25.1571 40.7433C25.6895 40.1118 26.428 39.6889 27.2421 39.5493C28.0561 39.4096 28.8933 39.5623 29.6057 39.9803C30.3181 40.3983 30.8598 41.0546 31.135 41.8334H33.6667C33.9761 41.8334 34.2728 41.7105 34.4916 41.4917C34.7104 41.2729 34.8333 40.9761 34.8333 40.6667V31.3334C34.8333 30.4051 35.2021 29.5149 35.8585 28.8585C36.5148 28.2021 37.4051 27.8334 38.3333 27.8334H41.8333V24.3334L47.6667 29L41.8333 33.6667V30.1667H38.3333C38.0239 30.1667 37.7272 30.2896 37.5084 30.5084C37.2896 30.7272 37.1667 31.024 37.1667 31.3334ZM27.8333 44.1667C28.1428 44.1667 28.4395 44.0438 28.6583 43.825C28.8771 43.6062 29 43.3095 29 43C29 42.6906 28.8771 42.3939 28.6583 42.1751C28.4395 41.9563 28.1428 41.8334 27.8333 41.8334C27.5239 41.8334 27.2272 41.9563 27.0084 42.1751C26.7896 42.3939 26.6667 42.6906 26.6667 43C26.6667 43.3095 26.7896 43.6062 27.0084 43.825C27.2272 44.0438 27.5239 44.1667 27.8333 44.1667Z" fill="white"/>
</g>
<defs>
<clipPath id="clip0_0_921">
<rect width="28" height="28" fill="white" transform="translate(22 22)"/>
</clipPath>
</defs>
</svg>
