<svg width="64" height="64" viewBox="0 0 64 64" fill="none" xmlns="http://www.w3.org/2000/svg">
<circle cx="32" cy="32" r="32" fill="url(#paint0_linear_81_252)"/>
<path fill-rule="evenodd" clip-rule="evenodd" d="M26.1333 46.6666C25.0966 46.6666 25.2728 46.2751 24.9152 45.288L21.8666 35.2548L45.3333 21.3333" fill="#C8DAEA"/>
<path fill-rule="evenodd" clip-rule="evenodd" d="M26.1334 46.6664C26.9334 46.6664 27.2868 46.3006 27.7334 45.8664L32 41.7176L26.6779 38.5083" fill="#A9C9DD"/>
<path fill-rule="evenodd" clip-rule="evenodd" d="M26.6773 38.5093L39.5733 48.037C41.0449 48.849 42.107 48.4286 42.4736 46.6708L47.7229 21.934C48.2604 19.7793 46.9016 18.802 45.4938 19.4411L14.6698 31.3267C12.5657 32.1706 12.578 33.3445 14.2862 33.8675L22.1964 36.3364L40.5092 24.7831C41.3737 24.2588 42.1671 24.5407 41.5159 25.1186" fill="url(#paint1_linear_81_252)"/>
<defs>
<linearGradient id="paint0_linear_81_252" x1="24.0032" y1="2.6688" x2="8.0032" y2="40" gradientUnits="userSpaceOnUse">
<stop stop-color="#37AEE2"/>
<stop offset="1" stop-color="#1E96C8"/>
</linearGradient>
<linearGradient id="paint1_linear_81_252" x1="27.9941" y1="33.9656" x2="31.4133" y2="45.0255" gradientUnits="userSpaceOnUse">
<stop stop-color="#EFF7FC"/>
<stop offset="1" stop-color="white"/>
</linearGradient>
</defs>
</svg>
