<svg width="64" height="64" viewBox="0 0 64 64" fill="none" xmlns="http://www.w3.org/2000/svg">
<path fill-rule="evenodd" clip-rule="evenodd" d="M0 32C0 14.3269 14.3269 0 32 0C49.6731 0 64 14.3269 64 32C64 49.6731 49.6731 64 32 64C14.3269 64 0 49.6731 0 32Z" fill="#55ACEE"/>
<path fill-rule="evenodd" clip-rule="evenodd" d="M31.0416 26.01L31.1088 27.1172L29.9896 26.9816C25.9158 26.4619 22.3569 24.6993 19.3351 21.739L17.8578 20.2702L17.4773 21.3549C16.6715 23.7728 17.1863 26.3263 18.8651 28.0437C19.7604 28.9928 19.559 29.1284 18.0145 28.5635C17.4773 28.3827 17.0073 28.2471 16.9625 28.3149C16.8058 28.4731 17.343 30.5294 17.7683 31.3429C18.3503 32.4728 19.5366 33.5801 20.8348 34.2354L21.9316 34.7551L20.6334 34.7777C19.3799 34.7777 19.3351 34.8003 19.4694 35.2749C19.9171 36.7437 21.6854 38.3029 23.6551 38.9809L25.0429 39.4554L23.8342 40.1785C22.0435 41.218 19.9395 41.8055 17.8354 41.8507C16.8282 41.8733 16 41.9637 16 42.0315C16 42.2575 18.7308 43.5229 20.32 44.0201C25.0876 45.4889 30.7506 44.8562 35.0035 42.3479C38.0252 40.5627 41.047 37.0149 42.4571 33.5801C43.2181 31.7497 43.9792 28.4053 43.9792 26.8009C43.9792 25.7614 44.0463 25.6258 45.2998 24.3829C46.0384 23.6598 46.7323 22.8689 46.8666 22.6429C47.0905 22.2136 47.0681 22.2136 45.9265 22.5977C44.0239 23.2757 43.7553 23.1853 44.6954 22.1684C45.3893 21.4453 46.2175 20.1346 46.2175 19.7505C46.2175 19.6827 45.8818 19.7957 45.5012 19.999C45.0983 20.225 44.203 20.564 43.5315 20.7674L42.3228 21.1515L41.226 20.4058C40.6217 19.999 39.7711 19.5471 39.3234 19.4115C38.1819 19.0952 36.436 19.1403 35.4064 19.5019C32.6084 20.5188 30.8402 23.1401 31.0416 26.01Z" fill="white"/>
</svg>
